<svg width="187" height="32" viewBox="0 0 187 32" fill="none" xmlns="http://www.w3.org/2000/svg">
<path d="M24 2.59286C21.5152 2.59286 19.5 3.54536 19.5 6.02637V14.3979C19.5 14.7873 19.6549 15.1607 19.9305 15.4359L23.7668 19.2631C23.8956 19.3919 24.1044 19.3919 24.2332 19.2631L28.0695 15.4359C28.3451 15.1607 28.5 14.7873 28.5 14.3979V6.02637C28.5 3.54536 26.4848 2.59286 24 2.59286ZM24 10.1701C23.0141 10.1701 22.1252 9.57616 21.748 8.66523C21.3707 7.75431 21.5794 6.70584 22.2767 6.00878C22.974 5.31172 24.0225 5.10336 24.9333 5.48087C25.8441 5.85839 26.4378 6.74742 26.4375 7.73337C26.4375 8.37976 26.1807 8.99967 25.7235 9.45667C25.2664 9.91367 24.6464 10.1703 24 10.1701ZM16.8818 9.70286C17.1076 9.58999 17.2502 9.3591 17.25 9.10661V6.55511C17.2502 6.5247 17.2364 6.4959 17.2124 6.47712C17.1885 6.45833 17.1572 6.45168 17.1278 6.45912C16.1529 6.77425 15.2119 7.18605 14.319 7.68836C14.2751 7.71225 14.2216 7.70965 14.1803 7.68162C10.923 5.50137 6.582 6.21912 3.117 6.73362C2.55825 6.81687 0.624751 7.07636 0.120751 7.14387C0.0516745 7.15323 0 7.21216 0 7.28187V27.8424C0 27.8826 0.0171156 27.9209 0.0472862 27.9475C0.0774568 27.974 0.117629 27.9863 0.157501 27.9811L1.515 27.8056C2.2035 27.7179 2.9085 27.6129 3.59025 27.5094C7.45275 26.9304 11.1007 26.3844 13.2682 28.5106L14.1383 29.3626C14.1989 29.422 14.2959 29.422 14.3565 29.3626L15.2265 28.5106C17.394 26.3851 21.042 26.9304 24.9045 27.5094C25.587 27.6129 26.292 27.7186 26.9805 27.8056L28.17 27.9586C28.2534 27.9694 28.3375 27.9437 28.4007 27.8882C28.4639 27.8326 28.5 27.7525 28.5 27.6684V19.7326C28.5 19.6901 28.4711 19.653 28.4298 19.6426C28.3886 19.6321 28.3455 19.651 28.3252 19.6884L28.3155 19.7071C26.875 22.2969 24.0535 23.8055 21.0998 23.5651C19.2788 23.3822 17.441 23.6527 15.75 24.3526V10.8939C15.7501 10.6328 15.8708 10.3864 16.077 10.2264C16.3274 10.0258 16.5969 9.85046 16.8818 9.70286ZM12.75 24.3526C9.8325 23.0416 6.8025 23.5846 3.525 24.0744L3.285 24.1096C3.21325 24.1201 3.14049 24.0988 3.08573 24.0512C3.03098 24.0037 2.99968 23.9346 3 23.8621V9.91961C3.00026 9.87366 3.03403 9.83478 3.0795 9.82811C3.33675 9.79061 3.62325 9.75161 3.8445 9.71861C7.182 9.22586 10.1655 8.70686 12.3802 10.2121C12.6117 10.3695 12.7502 10.6312 12.75 10.9111V24.3526Z" fill="#009691"/>
<path d="M38.57 21.5H36.59L42.116 8.756H43.736L49.208 21.5H47.192L45.896 18.368H39.848L38.57 21.5ZM40.478 16.802H45.248L42.872 10.826L40.478 16.802ZM50.7549 14.804C50.7549 14.576 50.7489 14.282 50.7369 13.922C50.7249 13.562 50.7069 13.244 50.6829 12.968H52.2849C52.3089 13.184 52.3269 13.436 52.3389 13.724C52.3509 14 52.3569 14.228 52.3569 14.408H52.4109C52.6509 13.904 52.9989 13.502 53.4549 13.202C53.9229 12.89 54.4449 12.734 55.0209 12.734C55.2849 12.734 55.5069 12.758 55.6869 12.806L55.6149 14.372C55.3749 14.312 55.1169 14.282 54.8409 14.282C54.4329 14.282 54.0789 14.36 53.7789 14.516C53.4789 14.66 53.2269 14.858 53.0229 15.11C52.8309 15.362 52.6869 15.656 52.5909 15.992C52.4949 16.316 52.4469 16.658 52.4469 17.018V21.5H50.7549V14.804ZM62.936 15.128C62.756 14.852 62.486 14.624 62.126 14.444C61.766 14.252 61.382 14.156 60.974 14.156C60.53 14.156 60.134 14.24 59.786 14.408C59.45 14.576 59.162 14.804 58.922 15.092C58.682 15.368 58.496 15.692 58.364 16.064C58.244 16.436 58.184 16.826 58.184 17.234C58.184 17.642 58.244 18.032 58.364 18.404C58.496 18.776 58.682 19.106 58.922 19.394C59.162 19.67 59.456 19.892 59.804 20.06C60.152 20.228 60.548 20.312 60.992 20.312C61.424 20.312 61.814 20.228 62.162 20.06C62.522 19.892 62.816 19.664 63.044 19.376L64.178 20.402C63.818 20.822 63.368 21.152 62.828 21.392C62.288 21.62 61.676 21.734 60.992 21.734C60.332 21.734 59.72 21.626 59.156 21.41C58.604 21.194 58.124 20.894 57.716 20.51C57.308 20.114 56.984 19.64 56.744 19.088C56.516 18.536 56.402 17.918 56.402 17.234C56.402 16.562 56.516 15.95 56.744 15.398C56.972 14.846 57.29 14.372 57.698 13.976C58.106 13.58 58.586 13.274 59.138 13.058C59.702 12.842 60.308 12.734 60.956 12.734C61.556 12.734 62.15 12.854 62.738 13.094C63.338 13.334 63.812 13.682 64.16 14.138L62.936 15.128ZM75.5565 11.384C75.1725 10.964 74.6805 10.628 74.0805 10.376C73.4925 10.124 72.8325 9.998 72.1005 9.998C71.3565 9.998 70.6845 10.136 70.0845 10.412C69.4845 10.676 68.9745 11.042 68.5545 11.51C68.1345 11.978 67.8105 12.524 67.5825 13.148C67.3545 13.76 67.2405 14.414 67.2405 15.11C67.2405 15.818 67.3545 16.484 67.5825 17.108C67.8105 17.732 68.1345 18.278 68.5545 18.746C68.9745 19.202 69.4905 19.562 70.1025 19.826C70.7145 20.09 71.3985 20.222 72.1545 20.222C72.7545 20.222 73.3065 20.168 73.8105 20.06C74.3145 19.952 74.7525 19.796 75.1245 19.592V16.046H72.2985V14.534H76.8885V20.708C76.2165 21.068 75.4845 21.344 74.6925 21.536C73.9005 21.728 73.0365 21.824 72.1005 21.824C71.1045 21.824 70.1865 21.662 69.3465 21.338C68.5185 21.002 67.8045 20.54 67.2045 19.952C66.6045 19.352 66.1365 18.644 65.8005 17.828C65.4645 17 65.2965 16.094 65.2965 15.11C65.2965 14.114 65.4645 13.208 65.8005 12.392C66.1485 11.564 66.6225 10.862 67.2225 10.286C67.8345 9.698 68.5545 9.242 69.3825 8.918C70.2105 8.594 71.1105 8.432 72.0825 8.432C73.1025 8.432 74.0085 8.582 74.8005 8.882C75.6045 9.182 76.2705 9.584 76.7985 10.088L75.5565 11.384ZM81.7363 21.5H79.9543V8.756H81.7363V21.5ZM91.177 11.114C90.925 10.766 90.583 10.484 90.151 10.268C89.719 10.04 89.233 9.926 88.693 9.926C88.405 9.926 88.111 9.968 87.811 10.052C87.523 10.124 87.259 10.25 87.019 10.43C86.779 10.598 86.581 10.814 86.425 11.078C86.281 11.33 86.209 11.636 86.209 11.996C86.209 12.344 86.275 12.638 86.407 12.878C86.551 13.106 86.737 13.304 86.965 13.472C87.205 13.628 87.481 13.766 87.793 13.886C88.117 13.994 88.459 14.108 88.819 14.228C89.251 14.36 89.689 14.51 90.133 14.678C90.577 14.846 90.979 15.068 91.339 15.344C91.699 15.62 91.993 15.968 92.221 16.388C92.449 16.796 92.563 17.318 92.563 17.954C92.563 18.614 92.437 19.19 92.185 19.682C91.945 20.162 91.621 20.564 91.213 20.888C90.805 21.2 90.331 21.434 89.791 21.59C89.263 21.746 88.717 21.824 88.153 21.824C87.349 21.824 86.569 21.668 85.813 21.356C85.069 21.044 84.451 20.582 83.959 19.97L85.345 18.8C85.645 19.244 86.047 19.604 86.551 19.88C87.055 20.156 87.601 20.294 88.189 20.294C88.489 20.294 88.789 20.252 89.089 20.168C89.389 20.084 89.659 19.952 89.899 19.772C90.151 19.592 90.355 19.37 90.511 19.106C90.667 18.83 90.745 18.5 90.745 18.116C90.745 17.732 90.661 17.414 90.493 17.162C90.337 16.898 90.121 16.676 89.845 16.496C89.569 16.316 89.245 16.166 88.873 16.046C88.513 15.914 88.129 15.782 87.721 15.65C87.313 15.53 86.911 15.386 86.515 15.218C86.119 15.038 85.765 14.816 85.453 14.552C85.141 14.276 84.889 13.94 84.697 13.544C84.505 13.148 84.409 12.656 84.409 12.068C84.409 11.432 84.535 10.886 84.787 10.43C85.051 9.974 85.387 9.596 85.795 9.296C86.215 8.996 86.683 8.78 87.199 8.648C87.727 8.504 88.255 8.432 88.783 8.432C89.527 8.432 90.223 8.564 90.871 8.828C91.519 9.092 92.041 9.446 92.437 9.89L91.177 11.114ZM105.925 11.114C105.673 10.766 105.331 10.484 104.899 10.268C104.467 10.04 103.981 9.926 103.441 9.926C103.153 9.926 102.859 9.968 102.559 10.052C102.271 10.124 102.007 10.25 101.767 10.43C101.527 10.598 101.329 10.814 101.173 11.078C101.029 11.33 100.957 11.636 100.957 11.996C100.957 12.344 101.023 12.638 101.155 12.878C101.299 13.106 101.485 13.304 101.713 13.472C101.953 13.628 102.229 13.766 102.541 13.886C102.865 13.994 103.207 14.108 103.567 14.228C103.999 14.36 104.437 14.51 104.881 14.678C105.325 14.846 105.727 15.068 106.087 15.344C106.447 15.62 106.741 15.968 106.969 16.388C107.197 16.796 107.311 17.318 107.311 17.954C107.311 18.614 107.185 19.19 106.933 19.682C106.693 20.162 106.369 20.564 105.961 20.888C105.553 21.2 105.079 21.434 104.539 21.59C104.011 21.746 103.465 21.824 102.901 21.824C102.097 21.824 101.317 21.668 100.561 21.356C99.817 21.044 99.199 20.582 98.707 19.97L100.093 18.8C100.393 19.244 100.795 19.604 101.299 19.88C101.803 20.156 102.349 20.294 102.937 20.294C103.237 20.294 103.537 20.252 103.837 20.168C104.137 20.084 104.407 19.952 104.647 19.772C104.899 19.592 105.103 19.37 105.259 19.106C105.415 18.83 105.493 18.5 105.493 18.116C105.493 17.732 105.409 17.414 105.241 17.162C105.085 16.898 104.869 16.676 104.593 16.496C104.317 16.316 103.993 16.166 103.621 16.046C103.261 15.914 102.877 15.782 102.469 15.65C102.061 15.53 101.659 15.386 101.263 15.218C100.867 15.038 100.513 14.816 100.201 14.552C99.889 14.276 99.637 13.94 99.445 13.544C99.253 13.148 99.157 12.656 99.157 12.068C99.157 11.432 99.283 10.886 99.535 10.43C99.799 9.974 100.135 9.596 100.543 9.296C100.963 8.996 101.431 8.78 101.947 8.648C102.475 8.504 103.003 8.432 103.531 8.432C104.275 8.432 104.971 8.564 105.619 8.828C106.267 9.092 106.789 9.446 107.185 9.89L105.925 11.114ZM113.818 14.354H111.55V18.8C111.55 19.316 111.646 19.688 111.838 19.916C112.03 20.132 112.336 20.24 112.756 20.24C112.912 20.24 113.08 20.222 113.26 20.186C113.44 20.15 113.602 20.096 113.746 20.024L113.8 21.41C113.596 21.482 113.368 21.536 113.116 21.572C112.876 21.62 112.624 21.644 112.36 21.644C111.556 21.644 110.938 21.422 110.506 20.978C110.086 20.534 109.876 19.868 109.876 18.98V14.354H108.238V12.968H109.876V10.52H111.55V12.968H113.818V14.354ZM124.205 17.216C124.205 17.876 124.085 18.482 123.845 19.034C123.617 19.586 123.293 20.066 122.873 20.474C122.465 20.87 121.979 21.182 121.415 21.41C120.851 21.626 120.245 21.734 119.597 21.734C118.949 21.734 118.343 21.626 117.779 21.41C117.215 21.182 116.729 20.87 116.321 20.474C115.913 20.066 115.589 19.586 115.349 19.034C115.121 18.482 115.007 17.876 115.007 17.216C115.007 16.556 115.121 15.956 115.349 15.416C115.589 14.864 115.913 14.39 116.321 13.994C116.729 13.598 117.215 13.292 117.779 13.076C118.343 12.848 118.949 12.734 119.597 12.734C120.245 12.734 120.851 12.848 121.415 13.076C121.979 13.292 122.465 13.598 122.873 13.994C123.293 14.39 123.617 14.864 123.845 15.416C124.085 15.956 124.205 16.556 124.205 17.216ZM122.441 17.216C122.441 16.808 122.375 16.418 122.243 16.046C122.123 15.674 121.943 15.35 121.703 15.074C121.463 14.786 121.163 14.558 120.803 14.39C120.455 14.222 120.053 14.138 119.597 14.138C119.141 14.138 118.733 14.222 118.373 14.39C118.025 14.558 117.731 14.786 117.491 15.074C117.251 15.35 117.065 15.674 116.933 16.046C116.813 16.418 116.753 16.808 116.753 17.216C116.753 17.624 116.813 18.014 116.933 18.386C117.065 18.758 117.251 19.088 117.491 19.376C117.731 19.664 118.025 19.892 118.373 20.06C118.733 20.228 119.141 20.312 119.597 20.312C120.053 20.312 120.455 20.228 120.803 20.06C121.163 19.892 121.463 19.664 121.703 19.376C121.943 19.088 122.123 18.758 122.243 18.386C122.375 18.014 122.441 17.624 122.441 17.216ZM126.552 14.804C126.552 14.576 126.546 14.282 126.534 13.922C126.522 13.562 126.504 13.244 126.48 12.968H128.082C128.106 13.184 128.124 13.436 128.136 13.724C128.148 14 128.154 14.228 128.154 14.408H128.208C128.448 13.904 128.796 13.502 129.252 13.202C129.72 12.89 130.242 12.734 130.818 12.734C131.082 12.734 131.304 12.758 131.484 12.806L131.412 14.372C131.172 14.312 130.914 14.282 130.638 14.282C130.23 14.282 129.876 14.36 129.576 14.516C129.276 14.66 129.024 14.858 128.82 15.11C128.628 15.362 128.484 15.656 128.388 15.992C128.292 16.316 128.244 16.658 128.244 17.018V21.5H126.552V14.804ZM136.313 19.664H136.349L138.707 12.968H140.507L136.367 23.516C136.223 23.876 136.067 24.194 135.899 24.47C135.731 24.758 135.533 24.998 135.305 25.19C135.077 25.394 134.807 25.55 134.495 25.658C134.195 25.766 133.835 25.82 133.415 25.82C133.235 25.82 133.049 25.808 132.857 25.784C132.677 25.772 132.491 25.742 132.299 25.694L132.461 24.2C132.749 24.296 133.031 24.344 133.307 24.344C133.751 24.344 134.081 24.218 134.297 23.966C134.513 23.726 134.711 23.378 134.891 22.922L135.431 21.5L131.777 12.968H133.667L136.313 19.664ZM148.822 18.548H148.858L152.62 8.756H155.392V21.5H153.61V10.844H153.574L149.344 21.5H148.21L143.998 10.844H143.962V21.5H142.234V8.756H145.006L148.822 18.548ZM163.713 15.974C163.713 15.338 163.521 14.87 163.137 14.57C162.753 14.258 162.243 14.102 161.607 14.102C161.127 14.102 160.671 14.198 160.239 14.39C159.819 14.57 159.465 14.804 159.177 15.092L158.277 14.012C158.697 13.616 159.207 13.304 159.807 13.076C160.419 12.848 161.073 12.734 161.769 12.734C162.381 12.734 162.909 12.824 163.353 13.004C163.809 13.172 164.181 13.406 164.469 13.706C164.757 14.006 164.973 14.36 165.117 14.768C165.261 15.176 165.333 15.614 165.333 16.082V19.808C165.333 20.096 165.339 20.402 165.351 20.726C165.375 21.038 165.411 21.296 165.459 21.5H163.929C163.833 21.092 163.785 20.684 163.785 20.276H163.731C163.419 20.732 163.023 21.086 162.543 21.338C162.075 21.59 161.517 21.716 160.869 21.716C160.533 21.716 160.179 21.668 159.807 21.572C159.447 21.488 159.117 21.344 158.817 21.14C158.517 20.936 158.265 20.666 158.061 20.33C157.869 19.994 157.773 19.58 157.773 19.088C157.773 18.44 157.947 17.93 158.295 17.558C158.643 17.174 159.099 16.886 159.663 16.694C160.227 16.49 160.863 16.358 161.571 16.298C162.279 16.238 162.993 16.208 163.713 16.208V15.974ZM163.299 17.432C162.879 17.432 162.441 17.45 161.985 17.486C161.541 17.522 161.133 17.594 160.761 17.702C160.401 17.81 160.101 17.972 159.861 18.188C159.621 18.404 159.501 18.692 159.501 19.052C159.501 19.304 159.549 19.514 159.645 19.682C159.753 19.85 159.891 19.988 160.059 20.096C160.227 20.204 160.413 20.282 160.617 20.33C160.821 20.366 161.031 20.384 161.247 20.384C162.039 20.384 162.645 20.15 163.065 19.682C163.497 19.202 163.713 18.602 163.713 17.882V17.432H163.299ZM169.851 25.82H168.159V12.968H169.815V14.3H169.869C170.145 13.844 170.547 13.472 171.075 13.184C171.615 12.884 172.239 12.734 172.947 12.734C173.583 12.734 174.159 12.848 174.675 13.076C175.203 13.304 175.653 13.622 176.025 14.03C176.409 14.438 176.703 14.918 176.907 15.47C177.111 16.01 177.213 16.592 177.213 17.216C177.213 17.84 177.111 18.428 176.907 18.98C176.703 19.532 176.415 20.012 176.043 20.42C175.671 20.828 175.221 21.152 174.693 21.392C174.165 21.62 173.571 21.734 172.911 21.734C172.299 21.734 171.723 21.602 171.183 21.338C170.643 21.074 170.217 20.702 169.905 20.222H169.851V25.82ZM175.467 17.216C175.467 16.82 175.407 16.436 175.287 16.064C175.167 15.692 174.987 15.362 174.747 15.074C174.507 14.786 174.207 14.558 173.847 14.39C173.499 14.222 173.091 14.138 172.623 14.138C172.191 14.138 171.795 14.222 171.435 14.39C171.087 14.558 170.787 14.786 170.535 15.074C170.283 15.362 170.085 15.692 169.941 16.064C169.809 16.436 169.743 16.826 169.743 17.234C169.743 17.642 169.809 18.032 169.941 18.404C170.085 18.776 170.283 19.106 170.535 19.394C170.787 19.67 171.087 19.892 171.435 20.06C171.795 20.228 172.191 20.312 172.623 20.312C173.091 20.312 173.499 20.228 173.847 20.06C174.207 19.88 174.507 19.646 174.747 19.358C174.987 19.07 175.167 18.74 175.287 18.368C175.407 17.996 175.467 17.612 175.467 17.216ZM184.175 15.128C183.983 14.816 183.713 14.564 183.365 14.372C183.017 14.168 182.627 14.066 182.195 14.066C182.003 14.066 181.811 14.09 181.619 14.138C181.427 14.174 181.253 14.24 181.097 14.336C180.953 14.42 180.833 14.534 180.737 14.678C180.653 14.81 180.611 14.978 180.611 15.182C180.611 15.542 180.773 15.812 181.097 15.992C181.421 16.16 181.907 16.316 182.555 16.46C182.963 16.556 183.341 16.67 183.689 16.802C184.037 16.934 184.337 17.102 184.589 17.306C184.853 17.498 185.057 17.732 185.201 18.008C185.345 18.284 185.417 18.608 185.417 18.98C185.417 19.484 185.321 19.91 185.129 20.258C184.937 20.606 184.679 20.894 184.355 21.122C184.043 21.338 183.683 21.494 183.275 21.59C182.867 21.686 182.447 21.734 182.015 21.734C181.367 21.734 180.731 21.608 180.107 21.356C179.495 21.104 178.985 20.72 178.577 20.204L179.783 19.178C180.011 19.514 180.323 19.796 180.719 20.024C181.127 20.252 181.571 20.366 182.051 20.366C182.267 20.366 182.471 20.348 182.663 20.312C182.867 20.264 183.047 20.192 183.203 20.096C183.371 20 183.503 19.874 183.599 19.718C183.695 19.562 183.743 19.364 183.743 19.124C183.743 18.728 183.551 18.434 183.167 18.242C182.795 18.05 182.243 17.87 181.511 17.702C181.223 17.63 180.929 17.546 180.629 17.45C180.341 17.342 180.077 17.198 179.837 17.018C179.597 16.838 179.399 16.616 179.243 16.352C179.099 16.076 179.027 15.74 179.027 15.344C179.027 14.888 179.117 14.498 179.297 14.174C179.489 13.838 179.735 13.568 180.035 13.364C180.335 13.148 180.677 12.992 181.061 12.896C181.445 12.788 181.841 12.734 182.249 12.734C182.861 12.734 183.449 12.854 184.013 13.094C184.589 13.334 185.033 13.682 185.345 14.138L184.175 15.128Z" fill="#001F1E"/>
</svg>
